<?xml version="1.0" encoding="UTF-8"?>
<svg version="1.1" xmlns="http://www.w3.org/2000/svg" width="512" height="512">
<path d="M0 0 C0.97305084 0.00215515 1.94610168 0.0043103 2.94863892 0.00653076 C17.29310965 0.05751944 31.34440319 0.39291828 45.4375 3.3125 C46.93603516 3.61849121 46.93603516 3.61849121 48.46484375 3.93066406 C90.65202547 12.79926683 129.1961201 31.63962391 161.4375 60.3125 C161.93556152 60.74884766 162.43362305 61.18519531 162.94677734 61.63476562 C201.87435326 95.79285953 228.29356087 142.86096511 238.6875 193.5 C238.83872314 194.23436279 238.98994629 194.96872559 239.14575195 195.7253418 C242.07529889 211.004972 242.84564026 226.16396477 242.8125 241.6875 C242.81168427 243.13266495 242.81168427 243.13266495 242.81085205 244.60702515 C242.74865289 268.65993658 239.40227194 291.25042536 232.4375 314.3125 C232.18661621 315.14765137 231.93573242 315.98280273 231.67724609 316.84326172 C223.6125884 343.02876441 210.44590371 367.85477361 193.4375 389.3125 C192.47263672 390.56546875 192.47263672 390.56546875 191.48828125 391.84375 C172.72441705 415.89803433 149.75127684 435.90630747 123.4375 451.3125 C122.26290886 452.02585732 121.08843323 452.73940487 119.9140625 453.453125 C66.87888265 485.08765601 0.800692 491.52362968 -58.5625 477.3125 C-65.31470879 475.57375908 -71.95502284 473.53480419 -78.5625 471.3125 C-79.24538086 471.08481934 -79.92826172 470.85713867 -80.63183594 470.62255859 C-103.6496448 462.81597758 -125.30445197 451.11659419 -144.5625 436.3125 C-147.38714332 437.59680501 -149.41947444 438.92674785 -151.58900452 441.13887024 C-152.15918304 441.7149704 -152.72936157 442.29107056 -153.31681824 442.8846283 C-153.9303566 443.51478348 -154.54389496 444.14493866 -155.17602539 444.79418945 C-155.83193665 445.45944641 -156.4878479 446.12470337 -157.16363525 446.81011963 C-158.58709224 448.25456895 -160.00837021 449.70116813 -161.42772102 451.14965248 C-163.68064794 453.446674 -165.9414738 455.73562915 -168.2049408 458.02226257 C-174.63989638 464.52433802 -181.06684807 471.03414269 -187.47241211 477.56518555 C-191.39323179 481.56165224 -195.32882896 485.5430548 -199.27404594 489.51543236 C-200.7694372 491.02685387 -202.25927229 492.54379493 -203.74321175 494.06646156 C-220.90430833 511.66727048 -220.90430833 511.66727048 -233.0390625 512.94140625 C-234.42201429 512.95164071 -235.8055885 512.92959846 -237.1875 512.875 C-237.9189624 512.85767822 -238.6504248 512.84035645 -239.40405273 512.82250977 C-249.36083093 512.38700461 -255.76625251 508.37584892 -262.5625 501.3125 C-268.06210688 494.89163918 -269.93868697 488.66869228 -270.0625 480.1875 C-270.10375 479.50429688 -270.145 478.82109375 -270.1875 478.1171875 C-270.33258556 468.25136965 -264.95492371 460.46530118 -258.44566536 453.56216621 C-254.90132817 449.93295937 -251.28891304 446.37663993 -247.6640625 442.828125 C-246.10190747 441.27718008 -244.54108636 439.72489056 -242.98153687 438.17132568 C-238.90125621 434.11379964 -234.80327681 430.07462929 -230.70117188 426.03918457 C-226.50725518 421.90697906 -222.33056958 417.75743484 -218.15234375 413.609375 C-209.97237581 405.49348363 -201.77357977 397.39690488 -193.5625 389.3125 C-194.9730001 385.62525636 -196.48725644 382.91407412 -198.9375 379.8125 C-235.50740564 330.36680181 -247.66441274 264.52962847 -239.05419922 204.49804688 C-231.2621186 154.01588805 -207.81869952 108.92731993 -172.5625 72.3125 C-172.06073242 71.78881836 -171.55896484 71.26513672 -171.04199219 70.72558594 C-164.28793684 63.71092395 -157.31488091 57.2328506 -149.5625 51.3125 C-148.62374023 50.59175293 -148.62374023 50.59175293 -147.66601562 49.85644531 C-135.90169114 40.89075642 -123.61628483 33.25610939 -110.5625 26.3125 C-109.42554688 25.70196777 -109.42554688 25.70196777 -108.265625 25.07910156 C-86.50481396 13.57172232 -61.82516412 6.12185071 -37.5625 2.3125 C-36.40983643 2.12921143 -35.25717285 1.94592285 -34.06958008 1.75708008 C-22.71113507 0.13629494 -11.46038508 -0.04564967 0 0 Z " fill="#EA9B58" transform="translate(269.5625,-0.31250000000000006)"/>
<path d="M0 0 C0.97305084 0.00215515 1.94610168 0.0043103 2.94863892 0.00653076 C17.29310965 0.05751944 31.34440319 0.39291828 45.4375 3.3125 C46.93603516 3.61849121 46.93603516 3.61849121 48.46484375 3.93066406 C90.65202547 12.79926683 129.1961201 31.63962391 161.4375 60.3125 C161.93556152 60.74884766 162.43362305 61.18519531 162.94677734 61.63476562 C201.87435326 95.79285953 228.29356087 142.86096511 238.6875 193.5 C238.83872314 194.23436279 238.98994629 194.96872559 239.14575195 195.7253418 C242.07529889 211.004972 242.84564026 226.16396477 242.8125 241.6875 C242.81168427 243.13266495 242.81168427 243.13266495 242.81085205 244.60702515 C242.74865289 268.65993658 239.40227194 291.25042536 232.4375 314.3125 C232.18661621 315.14765137 231.93573242 315.98280273 231.67724609 316.84326172 C223.6125884 343.02876441 210.44590371 367.85477361 193.4375 389.3125 C192.47263672 390.56546875 192.47263672 390.56546875 191.48828125 391.84375 C172.72441705 415.89803433 149.75127684 435.90630747 123.4375 451.3125 C122.26290886 452.02585732 121.08843323 452.73940487 119.9140625 453.453125 C66.87888265 485.08765601 0.800692 491.52362968 -58.5625 477.3125 C-65.31470879 475.57375908 -71.95502284 473.53480419 -78.5625 471.3125 C-79.24538086 471.08481934 -79.92826172 470.85713867 -80.63183594 470.62255859 C-103.6496448 462.81597758 -125.30445197 451.11659419 -144.5625 436.3125 C-147.38714332 437.59680501 -149.41947444 438.92674785 -151.58900452 441.13887024 C-152.15918304 441.7149704 -152.72936157 442.29107056 -153.31681824 442.8846283 C-153.9303566 443.51478348 -154.54389496 444.14493866 -155.17602539 444.79418945 C-155.83193665 445.45944641 -156.4878479 446.12470337 -157.16363525 446.81011963 C-158.58709224 448.25456895 -160.00837021 449.70116813 -161.42772102 451.14965248 C-163.68064794 453.446674 -165.9414738 455.73562915 -168.2049408 458.02226257 C-174.63989638 464.52433802 -181.06684807 471.03414269 -187.47241211 477.56518555 C-191.39323179 481.56165224 -195.32882896 485.5430548 -199.27404594 489.51543236 C-200.7694372 491.02685387 -202.25927229 492.54379493 -203.74321175 494.06646156 C-220.90430833 511.66727048 -220.90430833 511.66727048 -233.0390625 512.94140625 C-234.42201429 512.95164071 -235.8055885 512.92959846 -237.1875 512.875 C-237.9189624 512.85767822 -238.6504248 512.84035645 -239.40405273 512.82250977 C-249.36083093 512.38700461 -255.76625251 508.37584892 -262.5625 501.3125 C-268.06210688 494.89163918 -269.93868697 488.66869228 -270.0625 480.1875 C-270.10375 479.50429688 -270.145 478.82109375 -270.1875 478.1171875 C-270.33258556 468.25136965 -264.95492371 460.46530118 -258.44566536 453.56216621 C-254.90132817 449.93295937 -251.28891304 446.37663993 -247.6640625 442.828125 C-246.10190747 441.27718008 -244.54108636 439.72489056 -242.98153687 438.17132568 C-238.90125621 434.11379964 -234.80327681 430.07462929 -230.70117188 426.03918457 C-226.50725518 421.90697906 -222.33056958 417.75743484 -218.15234375 413.609375 C-209.97237581 405.49348363 -201.77357977 397.39690488 -193.5625 389.3125 C-194.9730001 385.62525636 -196.48725644 382.91407412 -198.9375 379.8125 C-235.50740564 330.36680181 -247.66441274 264.52962847 -239.05419922 204.49804688 C-231.2621186 154.01588805 -207.81869952 108.92731993 -172.5625 72.3125 C-172.06073242 71.78881836 -171.55896484 71.26513672 -171.04199219 70.72558594 C-164.28793684 63.71092395 -157.31488091 57.2328506 -149.5625 51.3125 C-148.62374023 50.59175293 -148.62374023 50.59175293 -147.66601562 49.85644531 C-135.90169114 40.89075642 -123.61628483 33.25610939 -110.5625 26.3125 C-109.42554688 25.70196777 -109.42554688 25.70196777 -108.265625 25.07910156 C-86.50481396 13.57172232 -61.82516412 6.12185071 -37.5625 2.3125 C-36.40983643 2.12921143 -35.25717285 1.94592285 -34.06958008 1.75708008 C-22.71113507 0.13629494 -11.46038508 -0.04564967 0 0 Z M-56.8125 48.5625 C-57.80644775 48.85914551 -58.80039551 49.15579102 -59.82446289 49.46142578 C-69.11391896 52.32580534 -77.86511574 55.99292634 -86.5625 60.3125 C-87.2745459 60.66038574 -87.9865918 61.00827148 -88.72021484 61.36669922 C-108.98457745 71.34588161 -126.16890412 84.88866613 -142.5625 100.3125 C-143.27148438 100.96734375 -143.98046875 101.6221875 -144.7109375 102.296875 C-175.80578165 131.99562411 -193.83955282 175.38881509 -199.5625 217.3125 C-199.70498169 218.30117065 -199.70498169 218.30117065 -199.8503418 219.30981445 C-200.79299311 226.59517463 -200.84857318 233.9129847 -200.875 241.25 C-200.87761841 241.94825897 -200.88023682 242.64651794 -200.88293457 243.36593628 C-200.89049563 262.35094227 -198.36482234 281.19229068 -192.5625 299.3125 C-192.33224121 300.04533203 -192.10198242 300.77816406 -191.86474609 301.53320312 C-182.04249607 332.43381222 -165.94403582 358.94185212 -143.5625 382.3125 C-143.09086426 382.81136719 -142.61922852 383.31023437 -142.13330078 383.82421875 C-108.39410257 419.38005513 -58.70155383 441.99495482 -9.67744446 443.54101562 C6.51055866 443.94841223 22.53848417 443.66966271 38.4375 440.3125 C39.38351074 440.11382324 40.32952148 439.91514648 41.30419922 439.71044922 C68.22726138 433.86902423 94.09786868 423.67794826 116.4375 407.3125 C117.47777344 406.55582031 118.51804687 405.79914063 119.58984375 405.01953125 C127.15955004 399.40694263 134.14407663 393.25679213 140.94580078 386.74121094 C142.31915496 385.42584782 143.7039824 384.1224915 145.08984375 382.8203125 C156.26026128 372.05577112 165.22813816 359.42045223 173.4375 346.3125 C174.00549316 345.41337891 174.00549316 345.41337891 174.58496094 344.49609375 C189.39496291 320.70760837 197.76661571 292.95371078 201.4375 265.3125 C201.56898438 264.33152344 201.70046875 263.35054687 201.8359375 262.33984375 C206.76680078 216.02970885 194.59620349 166.26504719 167.4375 128.3125 C166.73367188 127.31863281 166.02984375 126.32476562 165.3046875 125.30078125 C137.42421737 87.07755607 97.65306505 58.36856197 51.5625 46.625 C50.45128784 46.33955322 50.45128784 46.33955322 49.31762695 46.04833984 C46.70019352 45.41369316 44.07600654 44.85349644 41.4375 44.3125 C40.16970703 44.04993408 38.90191406 43.78736816 37.59570312 43.5168457 C26.26279926 41.32109659 15.16164963 40.81578115 3.63476562 40.86645508 C0.70370785 40.87495301 -2.2253833 40.84608648 -5.15625 40.81445312 C-22.83520871 40.74806596 -39.88032754 43.4348822 -56.8125 48.5625 Z " fill="#EEECEE" transform="translate(269.5625,-0.31250000000000006)"/>
<path d="M0 0 C6.10790962 2.44316385 9.3187583 8.13556351 13.09765625 13.3046875 C13.89115479 14.38351196 13.89115479 14.38351196 14.70068359 15.48413086 C15.7658266 16.940192 16.81980673 18.40449244 17.86181641 19.87719727 C18.35472168 20.55580811 18.84762695 21.23441895 19.35546875 21.93359375 C19.79270264 22.54775146 20.22993652 23.16190918 20.68041992 23.79467773 C22.41882708 25.54601204 23.72100375 25.86480803 26.125 26.25 C26.48215088 25.77691406 26.83930176 25.30382812 27.20727539 24.81640625 C28.8642592 22.62524738 30.52585227 20.43762384 32.1875 18.25 C32.74888672 17.50621094 33.31027344 16.76242188 33.88867188 15.99609375 C36.78730368 12.18646338 39.7350412 8.41765734 42.79296875 4.734375 C43.33074951 4.08178711 43.86853027 3.42919922 44.42260742 2.75683594 C46.47650256 0.93887512 47.65723174 0.63942019 50.375 0.5 C54.125 1.25 54.125 1.25 55.73168945 2.96142578 C62.43007685 13.96382344 67.6169087 31.41585583 65.125 44.25 C63.15144968 51.1612657 60.53919085 57.55426987 56.125 63.25 C55.568125 64.075 55.01125 64.9 54.4375 65.75 C48.3758621 72.30312206 41.44144473 74.92342211 33.125 78.25 C32.795 89.47 32.465 100.69 32.125 112.25 C36.88323166 111.06044209 37.19275237 109.96204391 40.125 106.25 C42.20749514 104.66184886 44.24159092 103.22138236 46.4375 101.8125 C47.06978516 101.40217529 47.70207031 100.99185059 48.35351562 100.5690918 C49.78521957 99.64695166 51.22052265 98.73038417 52.65869141 97.81835938 C54.43227044 96.6905162 56.19943807 95.55256748 57.96240234 94.40820312 C61.0034687 92.43822582 64.06172407 90.49772634 67.125 88.5625 C68.10380127 87.92578369 69.08260254 87.28906738 70.09106445 86.63305664 C77.95605175 81.74298949 77.95605175 81.74298949 82.125 82.16796875 C86.73818763 83.83183981 86.73818763 83.83183981 88.125 86.25 C88.96485535 93.86288239 88.79444406 102.01440162 86.125 109.25 C85.66480469 110.63251953 85.66480469 110.63251953 85.1953125 112.04296875 C79.85634307 126.56864766 68.37091822 135.64529192 55.375 143.1875 C53.60082438 144.23181995 51.82738144 145.27738567 50.0546875 146.32421875 C49.20745117 146.82356934 48.36021484 147.32291992 47.48730469 147.83740234 C43.59509687 150.16484286 39.80400644 152.63614716 36.0234375 155.140625 C34.125 156.25 34.125 156.25 32.125 156.25 C32.125 168.13 32.125 180.01 32.125 192.25 C36.81878309 189.43373015 38.75023458 187.35430257 42.125 183.25 C44.54296875 181.2578125 44.54296875 181.2578125 47.3125 179.375 C47.83787354 179.01768799 48.36324707 178.66037598 48.90454102 178.29223633 C56.45614882 173.24382199 64.25451955 168.56080017 72.01049805 163.83447266 C73.64305542 162.83939697 73.64305542 162.83939697 75.30859375 161.82421875 C76.28368896 161.23213623 77.25878418 160.64005371 78.26342773 160.0300293 C80.3200739 158.75070098 82.34559814 157.42083251 84.34912109 156.05981445 C88.40197604 153.41743858 90.38763782 153.6287066 95.125 154.25 C97.15312327 156.30117013 98.02908854 157.65287381 98.48828125 160.51171875 C98.13447992 177.41253633 91.52292777 192.30898192 79.375 204.1875 C74.87438185 207.97911666 69.91275394 210.92751819 64.875 213.9375 C63.59967407 214.70900391 63.59967407 214.70900391 62.29858398 215.49609375 C57.67690598 218.25912295 53.03354812 220.81465213 48.19140625 223.171875 C38.40860891 227.69460281 38.40860891 227.69460281 32.12011719 235.87402344 C30.97478516 242.02363981 31.25948697 248.07939093 32.125 254.25 C66.67771357 251.41540681 98.10054089 236.42259813 121.125 210.25 C144.42331588 182.33249385 152.7325266 148.0282737 150.125 112.25 C149.43555697 107.01761989 148.34569623 101.93888311 147 96.83984375 C146.24943896 93.76053306 145.75705482 91.38328314 146.125 88.25 C146.785 87.59 147.445 86.93 148.125 86.25 C151.1298917 86.40360469 152.61569531 86.69718687 154.6796875 88.9375 C175.13101924 124.75758399 178.89199181 165.91839074 168.23681641 205.42895508 C165.94210283 213.38691481 162.76210348 220.82345364 159.125 228.25 C158.82754883 228.87326172 158.53009766 229.49652344 158.22363281 230.13867188 C141.72439205 264.42141864 110.86307407 291.10302578 75.32568359 304.23413086 C67.44414664 306.98246153 59.31818107 308.71795551 51.125 310.25 C50.2280542 310.42877686 49.3311084 310.60755371 48.40698242 310.79174805 C40.55326413 312.25482975 32.9164249 312.59897448 24.9375 312.5625 C23.65955566 312.55758545 22.38161133 312.5526709 21.06494141 312.54760742 C12.18572216 312.43781365 3.76596684 311.85022935 -4.86181641 309.74169922 C-7.04010205 309.20967554 -9.22752507 308.73325287 -11.41796875 308.25390625 C-48.39334601 299.74515133 -81.69339609 275.2520093 -101.875 243.25 C-122.40133057 210.11340052 -130.67735473 169.90772182 -122.1953125 131.4921875 C-113.86602295 97.24102295 -113.86602295 97.24102295 -102.875 86.25 C-100.25 86.625 -100.25 86.625 -97.875 87.25 C-96.32427848 92.16716128 -97.53776515 96.10158462 -98.75 100.9375 C-100.2633473 107.38528446 -101.63351533 113.60917169 -101.875 120.25 C-101.9265625 121.38953125 -101.978125 122.5290625 -102.03125 123.703125 C-102.80057704 155.88663948 -91.66632203 186.73990493 -70.875 211.25 C-70.32328125 211.93578125 -69.7715625 212.6215625 -69.203125 213.328125 C-64.41820764 219.11559648 -58.81438289 223.68570436 -52.875 228.25 C-52.10542969 228.84683594 -51.33585937 229.44367188 -50.54296875 230.05859375 C-31.23725646 244.29943433 -7.957935 253.25 16.125 253.25 C16.455 246.65 16.785 240.05 17.125 233.25 C15.475 232.59 13.825 231.93 12.125 231.25 C10.37732758 230.24638949 8.65306176 229.20134193 6.94921875 228.125 C5.9638916 227.50584717 4.97856445 226.88669434 3.96337891 226.2487793 C2.92358887 225.58918213 1.88379883 224.92958496 0.8125 224.25 C-1.35258144 222.8810625 -3.51794664 221.51257369 -5.68359375 220.14453125 C-7.26889893 219.14220459 -7.26889893 219.14220459 -8.88623047 218.11962891 C-11.46016194 216.50950252 -14.04908901 214.93554227 -16.66015625 213.38671875 C-32.29992199 204.07457477 -43.18387021 192.60993734 -48.21875 174.640625 C-49.34793768 168.80648868 -50.88131587 160.7448728 -47.78515625 155.3515625 C-44.59892458 153.51410375 -42.51069408 153.76816103 -38.875 154.25 C-35.59618111 155.69891997 -32.63976933 157.56954172 -29.625 159.5 C-28.75891113 160.03923096 -27.89282227 160.57846191 -27.00048828 161.1340332 C-25.18991006 162.26396388 -23.38346926 163.40054911 -21.58105469 164.54345703 C-18.96850642 166.19103123 -16.33668778 167.80149498 -13.6953125 169.40234375 C-5.01689423 174.70234148 2.95501611 179.97184825 10.125 187.25 C10.99125 188.05244141 10.99125 188.05244141 11.875 188.87109375 C13.125 190.25 13.125 190.25 13.125 192.25 C14.115 191.92 15.105 191.59 16.125 191.25 C18.81967721 172.40071862 18.81967721 172.40071862 14.56640625 154.65527344 C10.35757782 150.63719601 5.20462176 148.52122401 -0.14990234 146.40429688 C-4.72817617 144.46503163 -8.82598822 141.80579487 -13 139.125 C-14.19786133 138.37210693 -14.19786133 138.37210693 -15.41992188 137.60400391 C-27.39865752 129.92176927 -35.21427327 119.3709373 -38.4934082 105.37353516 C-39.14496986 101.74763413 -39.24346979 98.1765085 -39.25 94.5 C-39.27449219 93.75878906 -39.29898438 93.01757812 -39.32421875 92.25390625 C-39.34240063 88.87813707 -39.08074341 86.59818115 -37.3515625 83.671875 C-34.41089429 81.98354183 -32.39844754 81.93375623 -29.08300781 82.546875 C-24.87444606 83.88706273 -21.38810547 86.29655917 -17.75 88.75 C-16.5120166 89.56150513 -16.5120166 89.56150513 -15.24902344 90.3894043 C-13.57704189 91.48544872 -11.90836717 92.58655546 -10.24316406 93.69287109 C-8.10626912 95.09793459 -5.95107851 96.46007345 -3.7734375 97.80078125 C1.97255912 101.35154326 7.26675907 104.76686464 11.6953125 109.9375 C13.31740911 111.63627124 13.31740911 111.63627124 17.125 112.25 C16.795 101.03 16.465 89.81 16.125 78.25 C12.825 76.93 9.525 75.61 6.125 74.25 C-4.64896403 68.57456887 -11.70810291 59.90285671 -15.36376953 48.2421875 C-19.09140697 33.7161505 -14.45011848 17.32216092 -7.875 4.25 C-5.06605495 1.3436104 -3.99533047 0.34742004 0 0 Z " fill="#FEF2DC" transform="translate(245.875,84.75)"/>
<path d="M0 0 C46.44530819 -3.52749176 100.12114789 24.32728265 134.625 53.4375 C136.76473828 55.27519547 138.88512843 57.13378125 141 59 C141.50241211 59.43924805 142.00482422 59.87849609 142.52246094 60.33105469 C181.44208146 94.49017511 207.85718167 141.55392565 218.25 192.1875 C218.40122314 192.92186279 218.55244629 193.65622559 218.70825195 194.4128418 C221.63779889 209.692472 222.40814026 224.85146477 222.375 240.375 C222.37418427 241.82016495 222.37418427 241.82016495 222.37335205 243.29452515 C222.31115289 267.34743658 218.96477194 289.93792536 212 313 C211.74911621 313.83515137 211.49823242 314.67030273 211.23974609 315.53076172 C203.1750884 341.71626441 190.00840371 366.54227361 173 388 C172.03513672 389.25296875 172.03513672 389.25296875 171.05078125 390.53125 C152.28691705 414.58553433 129.31377684 434.59380747 103 450 C101.82540886 450.71335732 100.65093323 451.42690487 99.4765625 452.140625 C46.44138265 483.77515601 -19.636808 490.21112968 -79 476 C-85.75220879 474.26125908 -92.39252284 472.22230419 -99 470 C-99.68288086 469.77231934 -100.36576172 469.54463867 -101.06933594 469.31005859 C-117.41342965 463.7668945 -135.23152283 456.57047981 -149 446 C-149.495 444.515 -149.495 444.515 -150 443 C-149.2972998 443.01047363 -148.59459961 443.02094727 -147.87060547 443.03173828 C-123.95814721 443.33885651 -99.90114125 442.61238364 -76.64697266 436.36816406 C-71.14588059 434.91673203 -67.4178098 435.13922946 -62 436.75 C-60.4912795 437.1420038 -58.98079541 437.52727351 -57.46875 437.90625 C-56.71464844 438.09574219 -55.96054688 438.28523438 -55.18359375 438.48046875 C-32.43319289 443.89335482 -4.72717639 442.79896553 18 438 C18.94601074 437.80132324 19.89202148 437.60264648 20.86669922 437.39794922 C47.78976138 431.55652423 73.66036868 421.36544826 96 405 C97.04027344 404.24332031 98.08054687 403.48664063 99.15234375 402.70703125 C106.74013298 397.08074216 113.73587677 390.91070237 120.55566406 384.38134766 C121.83801618 383.15491961 123.13297661 381.94170513 124.4296875 380.73046875 C135.32142696 370.28447663 144.01823462 357.74454719 152 345 C152.56799316 344.10087891 152.56799316 344.10087891 153.14746094 343.18359375 C167.95746291 319.39510837 176.32911571 291.64121078 180 264 C180.19722656 262.52853516 180.19722656 262.52853516 180.3984375 261.02734375 C185.32930078 214.71720885 173.15870349 164.95254719 146 127 C145.29617188 126.00613281 144.59234375 125.01226562 143.8671875 123.98828125 C124.15973484 96.96999937 98.61309794 73.78307006 67.8046875 60.1015625 C67.12422363 59.79839111 66.44375977 59.49521973 65.74267578 59.18286133 C63.87436979 58.36682226 61.99224972 57.58261871 60.109375 56.80078125 C56.40939118 54.65795143 55.18374851 52.64105736 53 49 C51.22357222 46.70409012 49.33471197 44.50912584 47.4375 42.3125 C46.9122876 41.7038208 46.3870752 41.0951416 45.84594727 40.46801758 C37.65291682 31.07031049 28.83565644 22.67790139 19 15 C18.4548877 14.57267578 17.90977539 14.14535156 17.34814453 13.70507812 C10.13768458 8.02132275 10.13768458 8.02132275 2.61328125 2.76953125 C1.75089844 2.18558594 0.88851562 1.60164062 0 1 C0 0.67 0 0.34 0 0 Z " fill="#E5E1E4" transform="translate(290,1)"/>
<path d="M0 0 C5.14764171 0.59832308 9.30514002 2.98046501 13.8125 5.375 C14.64910156 5.81835693 15.48570312 6.26171387 16.34765625 6.71850586 C62.15056066 31.49805064 97.15303094 74.94275189 112.46875 124.609375 C120.77712888 153.06244137 123.71218344 182.62884425 119 212 C118.79375 213.29808594 118.5875 214.59617187 118.375 215.93359375 C111.27612087 257.82529558 92.21285157 294.37775647 63 325 C62.20078125 325.85207031 61.4015625 326.70414062 60.578125 327.58203125 C26.90547276 362.52015899 -23.53642221 384.13361048 -71.91015625 385.30078125 C-74.62792458 385.32933663 -77.34464647 385.32631986 -80.0625 385.3125 C-80.77456604 385.31134186 -81.48663208 385.31018372 -82.22027588 385.30899048 C-98.33389389 385.257487 -114.61805981 384.1886449 -130 379 C-127.83483611 376.83483611 -126.71353774 376.43633237 -123.84375 375.5546875 C-122.99538574 375.2868042 -122.14702148 375.0189209 -121.27294922 374.74291992 C-120.35787598 374.45650635 -119.44280273 374.17009277 -118.5 373.875 C-93.35536513 365.72004124 -68.26596647 353.59231504 -48.02734375 336.375 C-45.45739935 334.6319934 -42.97386829 333.88412301 -40 333 C-2.60686189 321.47379972 30.56434844 297.45910472 49.33056641 262.52294922 C68.46027394 225.2564736 73.77001323 184.29456879 61 144 C55.80792454 126.56561746 55.80792454 126.56561746 45 113 C44.25146484 110.44750977 44.25146484 110.44750977 43.7109375 107.19140625 C43.49671143 105.98307129 43.28248535 104.77473633 43.06176758 103.52978516 C42.95087799 102.88390442 42.8399884 102.23802368 42.72573853 101.5725708 C36.58590424 66.38538511 22.54583509 33.3721838 1.6171875 4.44140625 C0 2 0 2 0 0 Z " fill="#D88A55" transform="translate(351,58)"/>
<path d="M0 0 C3.0048917 0.15360469 4.49069531 0.44718687 6.5546875 2.6875 C27.00601924 38.50758399 30.76699181 79.66839074 20.11181641 119.17895508 C17.81710283 127.13691481 14.63710348 134.57345364 11 142 C10.70254883 142.62326172 10.40509766 143.24652344 10.09863281 143.88867188 C-6.22859534 177.81400431 -36.48986406 204.10982415 -71.5 217.4375 C-72.46945557 217.80814575 -72.46945557 217.80814575 -73.45849609 218.1862793 C-77.66109699 219.71286509 -81.58626323 220.50516096 -86 221 C-82.37144271 217.31778567 -78.63158939 213.79545017 -74.8125 210.3125 C-65.49368922 201.73945807 -56.7915055 193.01044557 -49 183 C-48.53303711 182.40413086 -48.06607422 181.80826172 -47.58496094 181.19433594 C-32.25421911 161.549014 -19.39000441 139.52153729 -11 116 C-10.74911621 115.29810547 -10.49823242 114.59621094 -10.23974609 113.87304688 C-3.1081057 94.69943116 -3.1081057 94.69943116 -1.05859375 74.609375 C-0.98521026 71.34136361 -0.24145164 68.43448355 0.5 65.25 C4.25469121 47.59594138 3.46148618 27.98664914 -1.125 10.58984375 C-1.87556104 7.51053306 -2.36794518 5.13328314 -2 2 C-1.34 1.34 -0.68 0.68 0 0 Z " fill="#FEE4C1" transform="translate(394,171)"/>
<path d="M0 0 C3.82822916 1.7851476 6.5924214 4.23289106 9.625 7.125 C14.86910176 12.03829745 20.30930581 16.60607905 26 21 C21.99509443 25.78764451 17.82543633 30.33903297 13.43481445 34.77392578 C12.80787186 35.41065216 12.18092926 36.04737854 11.5349884 36.70339966 C9.48088524 38.78715951 7.42276623 40.86687211 5.36328125 42.9453125 C4.65436422 43.66080135 3.9454472 44.37629021 3.21504784 45.11346054 C-0.53536575 48.89632964 -4.28975545 52.67520925 -8.04663086 56.45166016 C-11.13987286 59.56272947 -14.22436896 62.68209148 -17.30151367 65.80908203 C-21.03627051 69.60423662 -24.78573396 73.38426395 -28.54596901 77.15417099 C-29.96834697 78.5850649 -31.38561722 80.02105645 -32.79743004 81.46237564 C-49.38353102 98.37642518 -49.38353102 98.37642518 -61.4765625 99.62890625 C-62.85951429 99.63914071 -64.2430885 99.61709846 -65.625 99.5625 C-66.7221936 99.53651733 -66.7221936 99.53651733 -67.84155273 99.51000977 C-77.79833093 99.07450461 -84.20375251 95.06334892 -91 88 C-98.26818194 79.51430535 -98.77624945 70.72972826 -98.19970703 59.98046875 C-97.62532387 54.28438539 -95.37207189 50.44067549 -91.5 46.375 C-89 45 -89 45 -87.125 45 C-85 46 -85 46 -81.6875 47.9375 C-74.44986869 52.1365477 -67.22162413 52.85013149 -59 52 C-49.01614185 49.334672 -42.51823481 43.4680153 -35.546875 36.23046875 C-34.51182645 35.18232824 -33.47519453 34.13574922 -32.43707275 33.09065247 C-29.73833749 30.36547451 -27.06131584 27.61994208 -24.38861084 24.8692627 C-21.64583744 22.05425996 -18.88257744 19.25951937 -16.12109375 16.46289062 C-10.72740838 10.99463518 -5.35655154 5.50466227 0 0 Z " fill="#D7D0D6" transform="translate(98,413)"/>
<path d="M0 0 C3.34659226 3.33336049 6.62878649 6.69755865 9.8125 10.1875 C10.60269531 11.04730469 11.39289063 11.90710938 12.20703125 12.79296875 C14 15 14 15 14 17 C14.66 17 15.32 17 16 17 C17.5078125 18.75 17.5078125 18.75 19.125 21 C19.66382812 21.7425 20.20265625 22.485 20.7578125 23.25 C21.16773437 23.8275 21.57765625 24.405 22 25 C15.97000582 31.19309123 9.92061813 37.36640717 3.84647751 43.5162077 C1.02575275 46.37326882 -1.78817083 49.23637983 -4.58691406 52.11499023 C-7.29452021 54.89936112 -10.01950222 57.66563934 -12.75673676 60.42087746 C-13.79141733 61.46836689 -14.81998133 62.52193928 -15.84183502 63.58194542 C-23.97291143 72.00396223 -32.05458329 77.97502504 -44.125 78.5 C-52.421108 78.10857158 -58.5852519 76.28273373 -65 71 C-68.10405796 71.18259164 -69.34164013 72.22776009 -72 74 C-70.70005304 71.13643903 -69.32621927 69.07773819 -67.10202026 66.86151123 C-66.51028015 66.26702179 -65.91854004 65.67253235 -65.30886841 65.06002808 C-64.66150726 64.41985748 -64.01414612 63.77968689 -63.34716797 63.12011719 C-62.66412598 62.43678314 -61.98108398 61.7534491 -61.27734375 61.04940796 C-59.02033362 58.79379024 -56.7563237 56.54533778 -54.4921875 54.296875 C-52.92519314 52.73361108 -51.35864001 51.16990477 -49.79251099 49.60577393 C-45.67051858 45.49141555 -41.54255516 41.3830988 -37.41333008 37.27600098 C-33.20032416 33.08345834 -28.99297842 28.88524412 -24.78515625 24.6875 C-16.5289751 16.45276472 -8.26647643 8.22439935 0 0 Z " fill="#E4E0E4" transform="translate(77,388)"/>
<path d="M0 0 C4.10972217 2.1941737 6.89106962 4.65027948 8.59375 8.984375 C9.31815949 14.20012334 9.63902073 17.76883354 7.28125 22.484375 C3.98397086 26.30227716 1.44218084 28.8640006 -3.71484375 29.6171875 C-8.19160904 29.79941675 -11.39634875 29.53869554 -15.53125 27.734375 C-19.7732471 23.59584125 -21.77083645 19.53513404 -22.59375 13.671875 C-21.77151241 8.01899158 -19.62814329 4.65916876 -15.46875 0.796875 C-10.37685817 -1.56048233 -5.33885805 -1.95226899 0 0 Z " fill="#FEF1DB" transform="translate(184.09375,109.765625)"/>
<path d="M0 0 C3.375 1.6875 3.375 1.6875 6 4 C6.78375 4.680625 7.5675 5.36125 8.375 6.0625 C10.88358199 10.59724437 10.6198253 14.93426732 10 20 C8.875 22.875 8.875 22.875 7 25 C6.195625 25.928125 5.39125 26.85625 4.5625 27.8125 C0.72756908 30.82292077 -3.36189028 30.75209021 -8.08203125 30.55859375 C-12.56362079 29.70067233 -15.25716361 27.58046906 -18 24 C-20.72278454 19.52948213 -20.64470693 15.09318474 -20 10 C-15.84395 1.36820384 -9.16601023 -1.47790719 0 0 Z " fill="#FEF2DC" transform="translate(368,109)"/>
<path d="M0 0 C0.99 0 1.98 0 3 0 C4.46739522 11.94878968 4.0947251 23.98594227 4 36 C3.67 36 3.34 36 3 36 C2.89042969 35.07960937 2.78085937 34.15921875 2.66796875 33.2109375 C1.68378682 25.35348503 0.40217589 17.73795501 -1.4140625 10.0234375 C-1.95777888 7.21786096 -2.26929311 4.84253838 -2 2 C-1.34 1.34 -0.68 0.68 0 0 Z " fill="#FEEFD8" transform="translate(394,171)"/>
<path d="M0 0 C0.33 0 0.66 0 1 0 C1.28571429 7.42857143 1.28571429 7.42857143 -1 11 C-1.66 10.67 -2.32 10.34 -3 10 C-2.49287967 6.28111761 -1.88391785 3.26545761 0 0 Z " fill="#FDEAD0" transform="translate(393,246)"/>
</svg>
